# xmcd
#
# Track frame offsets:
# 183
# 20503
# 38885
# 58953
# 84038
# 98748
# 119040
# 133178
# 146485
# 162785
#
# Disc length: 2437 seconds
#
#
# Revision: 0
# Processed by: cddbd v1.5.2PL0 Copyright (c) Steve Scherf et al.
# Submitted via: Nero 7, 11, 10, 0 
#
DISCID=8509830a
DTITLE=A.C. Reed - I'm In The Wrong Business
DYEAR=1987
DGENRE=Blues
TTITLE0=I'm In The Wrong Business
TTITLE1=I Can't Go On This Way
TTITLE2=Fast Food Annie
TTITLE3=This Little Voice
TTITLE4=My Buddy Buddy Friends
TTITLE5=She's Fine
TTITLE6=These Blues Is Killing Me
TTITLE7=Miami Strut
TTITLE8=The Things I Want You To Do
TTITLE9=Don't Drive Drunk
EXTD=
EXTT0=I'm In The Wrong Business
EXTT1=I Can't Go On This Way
EXTT2=Fast Food Annie
EXTT3=This Little Voice
EXTT4=My Buddy Buddy Friends
EXTT5=She's Fine
EXTT6=These Blues Is Killing Me
EXTT7=Miami Strut
EXTT8=The Things I Want You To Do
EXTT9=Don't Drive Drunk
PLAYORDER=
